<mxfile host="app.diagrams.net" modified="2024-03-27T03:15:22.531Z" agent="Mozilla/5.0 (Macintosh; Intel Mac OS X 10_15_7) AppleWebKit/537.36 (KHTML, like Gecko) Chrome/123.0.0.0 Safari/537.36" etag="BMxxrUp39I7hFOux52of" version="24.2.0" type="github">
  <diagram id="C5RBs43oDa-KdzZeNtuy" name="Page-1">
    <mxGraphModel dx="844" dy="409" grid="1" gridSize="10" guides="1" tooltips="1" connect="1" arrows="1" fold="1" page="1" pageScale="1" pageWidth="827" pageHeight="1169" math="0" shadow="0">
      <root>
        <mxCell id="WIyWlLk6GJQsqaUBKTNV-0" />
        <mxCell id="WIyWlLk6GJQsqaUBKTNV-1" parent="WIyWlLk6GJQsqaUBKTNV-0" />
        <mxCell id="WIyWlLk6GJQsqaUBKTNV-2" value="" style="rounded=0;html=1;jettySize=auto;orthogonalLoop=1;fontSize=11;endArrow=block;endFill=0;endSize=8;strokeWidth=1;shadow=0;labelBackgroundColor=none;edgeStyle=orthogonalEdgeStyle;" parent="WIyWlLk6GJQsqaUBKTNV-1" edge="1">
          <mxGeometry relative="1" as="geometry">
            <mxPoint x="220" y="170" as="targetPoint" />
          </mxGeometry>
        </mxCell>
        <mxCell id="WIyWlLk6GJQsqaUBKTNV-4" value="Yes" style="rounded=0;html=1;jettySize=auto;orthogonalLoop=1;fontSize=11;endArrow=block;endFill=0;endSize=8;strokeWidth=1;shadow=0;labelBackgroundColor=none;edgeStyle=orthogonalEdgeStyle;" parent="WIyWlLk6GJQsqaUBKTNV-1" edge="1">
          <mxGeometry y="20" relative="1" as="geometry">
            <mxPoint as="offset" />
            <mxPoint x="220" y="290" as="targetPoint" />
          </mxGeometry>
        </mxCell>
        <mxCell id="WIyWlLk6GJQsqaUBKTNV-5" value="No" style="edgeStyle=orthogonalEdgeStyle;rounded=0;html=1;jettySize=auto;orthogonalLoop=1;fontSize=11;endArrow=block;endFill=0;endSize=8;strokeWidth=1;shadow=0;labelBackgroundColor=none;" parent="WIyWlLk6GJQsqaUBKTNV-1" edge="1">
          <mxGeometry y="10" relative="1" as="geometry">
            <mxPoint as="offset" />
            <mxPoint x="270" y="210" as="sourcePoint" />
          </mxGeometry>
        </mxCell>
        <mxCell id="WIyWlLk6GJQsqaUBKTNV-8" value="No" style="rounded=0;html=1;jettySize=auto;orthogonalLoop=1;fontSize=11;endArrow=block;endFill=0;endSize=8;strokeWidth=1;shadow=0;labelBackgroundColor=none;edgeStyle=orthogonalEdgeStyle;" parent="WIyWlLk6GJQsqaUBKTNV-1" edge="1">
          <mxGeometry x="0.3333" y="20" relative="1" as="geometry">
            <mxPoint as="offset" />
            <mxPoint x="220" y="430" as="targetPoint" />
          </mxGeometry>
        </mxCell>
        <mxCell id="WIyWlLk6GJQsqaUBKTNV-9" value="Yes" style="edgeStyle=orthogonalEdgeStyle;rounded=0;html=1;jettySize=auto;orthogonalLoop=1;fontSize=11;endArrow=block;endFill=0;endSize=8;strokeWidth=1;shadow=0;labelBackgroundColor=none;" parent="WIyWlLk6GJQsqaUBKTNV-1" edge="1">
          <mxGeometry y="10" relative="1" as="geometry">
            <mxPoint as="offset" />
            <mxPoint x="270" y="330" as="sourcePoint" />
          </mxGeometry>
        </mxCell>
        <mxCell id="1vBE7vw-TmGdmV_pSitO-3" value="" style="endArrow=classic;html=1;rounded=0;" parent="WIyWlLk6GJQsqaUBKTNV-1" edge="1">
          <mxGeometry width="50" height="50" relative="1" as="geometry">
            <mxPoint x="120" y="640" as="sourcePoint" />
            <mxPoint x="120" y="160" as="targetPoint" />
          </mxGeometry>
        </mxCell>
        <mxCell id="1vBE7vw-TmGdmV_pSitO-4" value="" style="endArrow=classic;html=1;rounded=0;" parent="WIyWlLk6GJQsqaUBKTNV-1" edge="1">
          <mxGeometry width="50" height="50" relative="1" as="geometry">
            <mxPoint x="100" y="520" as="sourcePoint" />
            <mxPoint x="710" y="520" as="targetPoint" />
          </mxGeometry>
        </mxCell>
        <mxCell id="1vBE7vw-TmGdmV_pSitO-5" value="阶段" style="text;html=1;align=center;verticalAlign=middle;whiteSpace=wrap;rounded=0;" parent="WIyWlLk6GJQsqaUBKTNV-1" vertex="1">
          <mxGeometry x="90" y="130" width="60" height="30" as="geometry" />
        </mxCell>
        <mxCell id="1vBE7vw-TmGdmV_pSitO-6" value="时间" style="text;html=1;align=center;verticalAlign=middle;whiteSpace=wrap;rounded=0;" parent="WIyWlLk6GJQsqaUBKTNV-1" vertex="1">
          <mxGeometry x="714" y="505" width="60" height="30" as="geometry" />
        </mxCell>
        <mxCell id="1vBE7vw-TmGdmV_pSitO-7" value="5M" style="text;html=1;align=center;verticalAlign=middle;whiteSpace=wrap;rounded=0;" parent="WIyWlLk6GJQsqaUBKTNV-1" vertex="1">
          <mxGeometry x="170" y="520" width="60" height="30" as="geometry" />
        </mxCell>
        <mxCell id="1vBE7vw-TmGdmV_pSitO-8" value="1H" style="text;html=1;align=center;verticalAlign=middle;whiteSpace=wrap;rounded=0;" parent="WIyWlLk6GJQsqaUBKTNV-1" vertex="1">
          <mxGeometry x="250" y="520" width="60" height="30" as="geometry" />
        </mxCell>
        <mxCell id="1vBE7vw-TmGdmV_pSitO-9" value="" style="endArrow=none;html=1;rounded=0;" parent="WIyWlLk6GJQsqaUBKTNV-1" edge="1">
          <mxGeometry width="50" height="50" relative="1" as="geometry">
            <mxPoint x="200" y="520" as="sourcePoint" />
            <mxPoint x="200" y="510" as="targetPoint" />
            <Array as="points">
              <mxPoint x="200" y="510" />
            </Array>
          </mxGeometry>
        </mxCell>
        <mxCell id="1vBE7vw-TmGdmV_pSitO-10" value="" style="endArrow=none;html=1;rounded=0;" parent="WIyWlLk6GJQsqaUBKTNV-1" edge="1">
          <mxGeometry width="50" height="50" relative="1" as="geometry">
            <mxPoint x="280" y="520" as="sourcePoint" />
            <mxPoint x="280" y="510" as="targetPoint" />
            <Array as="points">
              <mxPoint x="280" y="510" />
            </Array>
          </mxGeometry>
        </mxCell>
        <mxCell id="1vBE7vw-TmGdmV_pSitO-13" value="" style="endArrow=none;html=1;rounded=0;" parent="WIyWlLk6GJQsqaUBKTNV-1" edge="1">
          <mxGeometry width="50" height="50" relative="1" as="geometry">
            <mxPoint x="360" y="520" as="sourcePoint" />
            <mxPoint x="360" y="510" as="targetPoint" />
            <Array as="points">
              <mxPoint x="360" y="510" />
            </Array>
          </mxGeometry>
        </mxCell>
        <mxCell id="1vBE7vw-TmGdmV_pSitO-14" value="" style="endArrow=none;html=1;rounded=0;" parent="WIyWlLk6GJQsqaUBKTNV-1" edge="1">
          <mxGeometry width="50" height="50" relative="1" as="geometry">
            <mxPoint x="440" y="520" as="sourcePoint" />
            <mxPoint x="440" y="510" as="targetPoint" />
            <Array as="points">
              <mxPoint x="440" y="510" />
            </Array>
          </mxGeometry>
        </mxCell>
        <mxCell id="1vBE7vw-TmGdmV_pSitO-15" value="" style="endArrow=none;html=1;rounded=0;" parent="WIyWlLk6GJQsqaUBKTNV-1" edge="1">
          <mxGeometry width="50" height="50" relative="1" as="geometry">
            <mxPoint x="520" y="520" as="sourcePoint" />
            <mxPoint x="520" y="510" as="targetPoint" />
            <Array as="points">
              <mxPoint x="520" y="510" />
            </Array>
          </mxGeometry>
        </mxCell>
        <mxCell id="1vBE7vw-TmGdmV_pSitO-16" value="3H+" style="text;html=1;align=center;verticalAlign=middle;whiteSpace=wrap;rounded=0;" parent="WIyWlLk6GJQsqaUBKTNV-1" vertex="1">
          <mxGeometry x="330" y="520" width="60" height="30" as="geometry" />
        </mxCell>
        <mxCell id="1vBE7vw-TmGdmV_pSitO-17" value="1D+" style="text;html=1;align=center;verticalAlign=middle;whiteSpace=wrap;rounded=0;" parent="WIyWlLk6GJQsqaUBKTNV-1" vertex="1">
          <mxGeometry x="410" y="520" width="60" height="30" as="geometry" />
        </mxCell>
        <mxCell id="1vBE7vw-TmGdmV_pSitO-19" value="故障处理流程" style="text;html=1;align=center;verticalAlign=middle;whiteSpace=wrap;rounded=0;" parent="WIyWlLk6GJQsqaUBKTNV-1" vertex="1">
          <mxGeometry x="310" y="70" width="80" height="30" as="geometry" />
        </mxCell>
        <mxCell id="1vBE7vw-TmGdmV_pSitO-20" value="初步诊断" style="text;html=1;align=center;verticalAlign=middle;whiteSpace=wrap;rounded=0;" parent="WIyWlLk6GJQsqaUBKTNV-1" vertex="1">
          <mxGeometry x="60" y="226" width="60" height="30" as="geometry" />
        </mxCell>
        <mxCell id="1vBE7vw-TmGdmV_pSitO-21" value="原因分析" style="text;html=1;align=center;verticalAlign=middle;whiteSpace=wrap;rounded=0;" parent="WIyWlLk6GJQsqaUBKTNV-1" vertex="1">
          <mxGeometry x="60" y="264" width="60" height="30" as="geometry" />
        </mxCell>
        <mxCell id="1vBE7vw-TmGdmV_pSitO-22" value="修复方案" style="text;html=1;align=center;verticalAlign=middle;whiteSpace=wrap;rounded=0;" parent="WIyWlLk6GJQsqaUBKTNV-1" vertex="1">
          <mxGeometry x="60" y="304" width="60" height="30" as="geometry" />
        </mxCell>
        <mxCell id="1vBE7vw-TmGdmV_pSitO-23" value="通知人员" style="text;html=1;align=center;verticalAlign=middle;whiteSpace=wrap;rounded=0;" parent="WIyWlLk6GJQsqaUBKTNV-1" vertex="1">
          <mxGeometry x="60" y="344" width="60" height="30" as="geometry" />
        </mxCell>
        <mxCell id="1vBE7vw-TmGdmV_pSitO-25" value="实施修复" style="text;html=1;align=center;verticalAlign=middle;whiteSpace=wrap;rounded=0;" parent="WIyWlLk6GJQsqaUBKTNV-1" vertex="1">
          <mxGeometry x="60" y="385" width="60" height="30" as="geometry" />
        </mxCell>
        <mxCell id="1vBE7vw-TmGdmV_pSitO-26" value="验证监控" style="text;html=1;align=center;verticalAlign=middle;whiteSpace=wrap;rounded=0;" parent="WIyWlLk6GJQsqaUBKTNV-1" vertex="1">
          <mxGeometry x="60" y="425" width="60" height="30" as="geometry" />
        </mxCell>
        <mxCell id="1vBE7vw-TmGdmV_pSitO-27" value="总结改进" style="text;html=1;align=center;verticalAlign=middle;whiteSpace=wrap;rounded=0;" parent="WIyWlLk6GJQsqaUBKTNV-1" vertex="1">
          <mxGeometry x="60" y="465" width="60" height="30" as="geometry" />
        </mxCell>
        <mxCell id="1vBE7vw-TmGdmV_pSitO-29" value="" style="endArrow=none;html=1;rounded=0;exitX=1.011;exitY=0.346;exitDx=0;exitDy=0;exitPerimeter=0;" parent="WIyWlLk6GJQsqaUBKTNV-1" edge="1">
          <mxGeometry width="50" height="50" relative="1" as="geometry">
            <mxPoint x="120" y="240" as="sourcePoint" />
            <mxPoint x="129" y="240" as="targetPoint" />
          </mxGeometry>
        </mxCell>
        <mxCell id="1vBE7vw-TmGdmV_pSitO-32" value="" style="endArrow=none;html=1;rounded=0;exitX=1.011;exitY=0.346;exitDx=0;exitDy=0;exitPerimeter=0;" parent="WIyWlLk6GJQsqaUBKTNV-1" edge="1">
          <mxGeometry width="50" height="50" relative="1" as="geometry">
            <mxPoint x="120" y="279" as="sourcePoint" />
            <mxPoint x="129" y="279" as="targetPoint" />
          </mxGeometry>
        </mxCell>
        <mxCell id="1vBE7vw-TmGdmV_pSitO-33" value="" style="endArrow=none;html=1;rounded=0;exitX=1.011;exitY=0.346;exitDx=0;exitDy=0;exitPerimeter=0;" parent="WIyWlLk6GJQsqaUBKTNV-1" edge="1">
          <mxGeometry width="50" height="50" relative="1" as="geometry">
            <mxPoint x="120" y="319" as="sourcePoint" />
            <mxPoint x="129" y="319" as="targetPoint" />
          </mxGeometry>
        </mxCell>
        <mxCell id="1vBE7vw-TmGdmV_pSitO-34" value="" style="endArrow=none;html=1;rounded=0;exitX=1.011;exitY=0.346;exitDx=0;exitDy=0;exitPerimeter=0;" parent="WIyWlLk6GJQsqaUBKTNV-1" edge="1">
          <mxGeometry width="50" height="50" relative="1" as="geometry">
            <mxPoint x="120" y="359" as="sourcePoint" />
            <mxPoint x="129" y="359" as="targetPoint" />
          </mxGeometry>
        </mxCell>
        <mxCell id="1vBE7vw-TmGdmV_pSitO-35" value="" style="endArrow=none;html=1;rounded=0;exitX=1.011;exitY=0.346;exitDx=0;exitDy=0;exitPerimeter=0;" parent="WIyWlLk6GJQsqaUBKTNV-1" edge="1">
          <mxGeometry width="50" height="50" relative="1" as="geometry">
            <mxPoint x="120" y="399" as="sourcePoint" />
            <mxPoint x="129" y="399" as="targetPoint" />
          </mxGeometry>
        </mxCell>
        <mxCell id="1vBE7vw-TmGdmV_pSitO-36" value="" style="endArrow=none;html=1;rounded=0;exitX=1.011;exitY=0.346;exitDx=0;exitDy=0;exitPerimeter=0;" parent="WIyWlLk6GJQsqaUBKTNV-1" edge="1">
          <mxGeometry width="50" height="50" relative="1" as="geometry">
            <mxPoint x="120" y="439" as="sourcePoint" />
            <mxPoint x="129" y="439" as="targetPoint" />
          </mxGeometry>
        </mxCell>
        <mxCell id="1vBE7vw-TmGdmV_pSitO-37" value="" style="endArrow=none;html=1;rounded=0;exitX=1.011;exitY=0.346;exitDx=0;exitDy=0;exitPerimeter=0;" parent="WIyWlLk6GJQsqaUBKTNV-1" edge="1">
          <mxGeometry width="50" height="50" relative="1" as="geometry">
            <mxPoint x="120" y="479" as="sourcePoint" />
            <mxPoint x="129" y="479" as="targetPoint" />
          </mxGeometry>
        </mxCell>
        <mxCell id="1vBE7vw-TmGdmV_pSitO-41" value="&lt;font style=&quot;font-size: 7px;&quot;&gt;不要超过5分钟&lt;/font&gt;" style="rounded=0;whiteSpace=wrap;html=1;" parent="WIyWlLk6GJQsqaUBKTNV-1" vertex="1">
          <mxGeometry x="160" y="225" width="65" height="24" as="geometry" />
        </mxCell>
        <mxCell id="1vBE7vw-TmGdmV_pSitO-45" value="&lt;font style=&quot;font-size: 7px;&quot;&gt;不要超过1小时&lt;/font&gt;" style="rounded=0;whiteSpace=wrap;html=1;" parent="WIyWlLk6GJQsqaUBKTNV-1" vertex="1">
          <mxGeometry x="240" y="264" width="65" height="24" as="geometry" />
        </mxCell>
        <mxCell id="1vBE7vw-TmGdmV_pSitO-46" value="&lt;span style=&quot;font-size: 7px;&quot;&gt;想办法绕过/根本修复&lt;/span&gt;" style="rounded=0;whiteSpace=wrap;html=1;" parent="WIyWlLk6GJQsqaUBKTNV-1" vertex="1">
          <mxGeometry x="325" y="310" width="75" height="24" as="geometry" />
        </mxCell>
        <mxCell id="1vBE7vw-TmGdmV_pSitO-47" value="&lt;font style=&quot;font-size: 7px;&quot;&gt;超过1小时没办法绕、修复的需要通知业务相关人员&lt;/font&gt;" style="rounded=0;whiteSpace=wrap;html=1;" parent="WIyWlLk6GJQsqaUBKTNV-1" vertex="1">
          <mxGeometry x="414" y="339" width="65" height="40" as="geometry" />
        </mxCell>
        <mxCell id="1vBE7vw-TmGdmV_pSitO-48" value="&lt;span style=&quot;font-size: 7px;&quot;&gt;实施绕过/根本修复&lt;/span&gt;" style="rounded=0;whiteSpace=wrap;html=1;" parent="WIyWlLk6GJQsqaUBKTNV-1" vertex="1">
          <mxGeometry x="500" y="391" width="75" height="24" as="geometry" />
        </mxCell>
        <mxCell id="AgQT0NtMCUdhjYLStBfb-0" value="1D+" style="text;html=1;align=center;verticalAlign=middle;whiteSpace=wrap;rounded=0;" vertex="1" parent="WIyWlLk6GJQsqaUBKTNV-1">
          <mxGeometry x="490" y="520" width="60" height="30" as="geometry" />
        </mxCell>
        <mxCell id="AgQT0NtMCUdhjYLStBfb-3" value="" style="edgeStyle=orthogonalEdgeStyle;rounded=0;orthogonalLoop=1;jettySize=auto;html=1;" edge="1" parent="WIyWlLk6GJQsqaUBKTNV-1" source="AgQT0NtMCUdhjYLStBfb-1" target="AgQT0NtMCUdhjYLStBfb-2">
          <mxGeometry relative="1" as="geometry" />
        </mxCell>
        <mxCell id="AgQT0NtMCUdhjYLStBfb-1" value="初步诊断" style="rounded=0;whiteSpace=wrap;html=1;" vertex="1" parent="WIyWlLk6GJQsqaUBKTNV-1">
          <mxGeometry x="260" y="700" width="120" height="60" as="geometry" />
        </mxCell>
        <mxCell id="AgQT0NtMCUdhjYLStBfb-5" value="" style="edgeStyle=orthogonalEdgeStyle;rounded=0;orthogonalLoop=1;jettySize=auto;html=1;" edge="1" parent="WIyWlLk6GJQsqaUBKTNV-1" source="AgQT0NtMCUdhjYLStBfb-2" target="AgQT0NtMCUdhjYLStBfb-4">
          <mxGeometry relative="1" as="geometry" />
        </mxCell>
        <mxCell id="AgQT0NtMCUdhjYLStBfb-19" value="否" style="edgeLabel;html=1;align=center;verticalAlign=middle;resizable=0;points=[];" vertex="1" connectable="0" parent="AgQT0NtMCUdhjYLStBfb-5">
          <mxGeometry x="0.5799" y="-2" relative="1" as="geometry">
            <mxPoint as="offset" />
          </mxGeometry>
        </mxCell>
        <mxCell id="AgQT0NtMCUdhjYLStBfb-14" value="" style="edgeStyle=orthogonalEdgeStyle;rounded=0;orthogonalLoop=1;jettySize=auto;html=1;entryX=0.5;entryY=0;entryDx=0;entryDy=0;" edge="1" parent="WIyWlLk6GJQsqaUBKTNV-1" source="AgQT0NtMCUdhjYLStBfb-2" target="AgQT0NtMCUdhjYLStBfb-16">
          <mxGeometry relative="1" as="geometry" />
        </mxCell>
        <mxCell id="AgQT0NtMCUdhjYLStBfb-2" value="原因分析" style="rounded=0;whiteSpace=wrap;html=1;" vertex="1" parent="WIyWlLk6GJQsqaUBKTNV-1">
          <mxGeometry x="260" y="840" width="120" height="60" as="geometry" />
        </mxCell>
        <mxCell id="AgQT0NtMCUdhjYLStBfb-7" value="" style="edgeStyle=orthogonalEdgeStyle;rounded=0;orthogonalLoop=1;jettySize=auto;html=1;" edge="1" parent="WIyWlLk6GJQsqaUBKTNV-1" source="AgQT0NtMCUdhjYLStBfb-4" target="AgQT0NtMCUdhjYLStBfb-6">
          <mxGeometry relative="1" as="geometry" />
        </mxCell>
        <mxCell id="AgQT0NtMCUdhjYLStBfb-4" value="修复方案" style="rounded=0;whiteSpace=wrap;html=1;" vertex="1" parent="WIyWlLk6GJQsqaUBKTNV-1">
          <mxGeometry x="260" y="1150" width="120" height="60" as="geometry" />
        </mxCell>
        <mxCell id="AgQT0NtMCUdhjYLStBfb-9" value="" style="edgeStyle=orthogonalEdgeStyle;rounded=0;orthogonalLoop=1;jettySize=auto;html=1;" edge="1" parent="WIyWlLk6GJQsqaUBKTNV-1" source="AgQT0NtMCUdhjYLStBfb-6" target="AgQT0NtMCUdhjYLStBfb-8">
          <mxGeometry relative="1" as="geometry" />
        </mxCell>
        <mxCell id="AgQT0NtMCUdhjYLStBfb-6" value="通知人员" style="rounded=0;whiteSpace=wrap;html=1;" vertex="1" parent="WIyWlLk6GJQsqaUBKTNV-1">
          <mxGeometry x="260" y="1290" width="120" height="60" as="geometry" />
        </mxCell>
        <mxCell id="AgQT0NtMCUdhjYLStBfb-11" value="" style="edgeStyle=orthogonalEdgeStyle;rounded=0;orthogonalLoop=1;jettySize=auto;html=1;" edge="1" parent="WIyWlLk6GJQsqaUBKTNV-1" source="AgQT0NtMCUdhjYLStBfb-8" target="AgQT0NtMCUdhjYLStBfb-10">
          <mxGeometry relative="1" as="geometry" />
        </mxCell>
        <mxCell id="AgQT0NtMCUdhjYLStBfb-8" value="实施修复" style="rounded=0;whiteSpace=wrap;html=1;" vertex="1" parent="WIyWlLk6GJQsqaUBKTNV-1">
          <mxGeometry x="260" y="1430" width="120" height="60" as="geometry" />
        </mxCell>
        <mxCell id="AgQT0NtMCUdhjYLStBfb-13" value="" style="edgeStyle=orthogonalEdgeStyle;rounded=0;orthogonalLoop=1;jettySize=auto;html=1;" edge="1" parent="WIyWlLk6GJQsqaUBKTNV-1" source="AgQT0NtMCUdhjYLStBfb-10" target="AgQT0NtMCUdhjYLStBfb-12">
          <mxGeometry relative="1" as="geometry" />
        </mxCell>
        <mxCell id="AgQT0NtMCUdhjYLStBfb-10" value="验证监控" style="rounded=0;whiteSpace=wrap;html=1;" vertex="1" parent="WIyWlLk6GJQsqaUBKTNV-1">
          <mxGeometry x="260" y="1570" width="120" height="60" as="geometry" />
        </mxCell>
        <mxCell id="AgQT0NtMCUdhjYLStBfb-12" value="总结改进" style="rounded=0;whiteSpace=wrap;html=1;" vertex="1" parent="WIyWlLk6GJQsqaUBKTNV-1">
          <mxGeometry x="260" y="1710" width="120" height="60" as="geometry" />
        </mxCell>
        <mxCell id="AgQT0NtMCUdhjYLStBfb-17" style="edgeStyle=orthogonalEdgeStyle;rounded=0;orthogonalLoop=1;jettySize=auto;html=1;exitX=0;exitY=0.5;exitDx=0;exitDy=0;" edge="1" parent="WIyWlLk6GJQsqaUBKTNV-1" source="AgQT0NtMCUdhjYLStBfb-16">
          <mxGeometry relative="1" as="geometry">
            <mxPoint x="320" y="1060" as="sourcePoint" />
            <mxPoint x="260" y="1320" as="targetPoint" />
            <Array as="points">
              <mxPoint x="180" y="1020" />
              <mxPoint x="180" y="1320" />
            </Array>
          </mxGeometry>
        </mxCell>
        <mxCell id="AgQT0NtMCUdhjYLStBfb-18" value="是" style="edgeLabel;html=1;align=center;verticalAlign=middle;resizable=0;points=[];" vertex="1" connectable="0" parent="AgQT0NtMCUdhjYLStBfb-17">
          <mxGeometry x="-0.157" relative="1" as="geometry">
            <mxPoint as="offset" />
          </mxGeometry>
        </mxCell>
        <mxCell id="AgQT0NtMCUdhjYLStBfb-16" value="超30M" style="rhombus;whiteSpace=wrap;html=1;" vertex="1" parent="WIyWlLk6GJQsqaUBKTNV-1">
          <mxGeometry x="280" y="980" width="80" height="80" as="geometry" />
        </mxCell>
      </root>
    </mxGraphModel>
  </diagram>
</mxfile>
